<svg height='300px' width='300px'  fill="#000000" xmlns="http://www.w3.org/2000/svg" xmlns:xlink="http://www.w3.org/1999/xlink" version="1.1" x="0px" y="0px" viewBox="0 0 200 200" style="enable-background:new 0 0 200 200;" xml:space="preserve"><style type="text/css">
	.st0{fill:none;}
</style><path class="st0" d="M115.8,110.6l30,30.3H158c2.5,0,4.6-2.1,4.6-4.6v-12.4l-29.9-30.2L115.8,110.6z"></path><g><g><path d="M36.6,135.3V109l36.5-36.9l24.1,24.3l2.8-2.8L74.5,67.8c-0.8-0.8-2.1-0.8-2.8,0l-35.1,35.5V58.5c0-2.5,2.1-4.6,4.6-4.6    h98.6l4-4H41.1c-4.7,0-8.6,3.9-8.6,8.6v76.8c0,4.7,3.9,8.6,8.6,8.6h8.6l4-4H41.1C38.6,139.9,36.6,137.8,36.6,135.3z"></path><path d="M158,49.9h-2.8l-4,4h6.8c2.5,0,4.6,2.1,4.6,4.6v58.7l-28.5-28.8c-0.4-0.4-0.9-0.6-1.4-0.6c0,0,0,0,0,0    c-0.5,0-1,0.2-1.4,0.6L113,106.7l-7.3-7.4l-2.8,2.8l37.3,37.7h-75l-4,4H158c4.7,0,8.6-3.9,8.6-8.6V58.5    C166.6,53.7,162.7,49.9,158,49.9z M162.6,135.3c0,2.5-2.1,4.6-4.6,4.6h-12.2l-30-30.3l16.8-16.9l29.9,30.2V135.3z"></path></g><rect x="17.2" y="97.2" transform="matrix(0.7071 -0.7071 0.7071 0.7071 -40.7781 99.9857)" width="166.2" height="4"></rect></g></svg>